# xmcd CD database file
#
# Track frame offsets:
#	150
#	14972
#	30569
#	46612
#	60108
#
# Disc length: 1034 seconds
#
# Revision: 1
# Processed by: cddbd v1.5.2PL0 Copyright (c) Steve Scherf et al.
# Submitted via: CDex 1.70beta2
#
DISCID=32040805
DTITLE=Sirka Ragnar - I am, you are, he/she/it is
DYEAR=2006
DGENRE=Jazz
TTITLE0=Keep it yours
TTITLE1=(in) here
TTITLE2=nove stereo
TTITLE3=port now
TTITLE4=eim at you
EXTD=YEAR: 2006
EXTT0=
EXTT1=
EXTT2=
EXTT3=
EXTT4=
PLAYORDER=
